<?xml version="1.0" encoding="utf-8"?>
<!-- Generator: Adobe Illustrator 18.0.0, SVG Export Plug-In . SVG Version: 6.00 Build 0)  -->
<!DOCTYPE svg PUBLIC "-//W3C//DTD SVG 1.1//EN" "http://www.w3.org/Graphics/SVG/1.1/DTD/svg11.dtd">
<svg version="1.1" xmlns="http://www.w3.org/2000/svg" xmlns:xlink="http://www.w3.org/1999/xlink" x="0px" y="0px"
	 viewBox="0 0 648 457" enable-background="new 0 0 648 457" xml:space="preserve">
<g id="Layer_1">
	<g>
		<path fill="#253545" d="M212.2,379.8c0-13.3,0-25.8,0-39.3c2.7,0.2,5.2,0.2,7.6,0.6c20,3.7,37.1-3.9,45.3-22.3
			c1.7-3.7,3.6-7.5,4.4-11.5c1.1-5.3-0.8-7.5-5.8-9.2c-8.6-2.8-17.3-2.9-26-1.2c-10.7,2.1-17.4,9.4-22.6,18.4c-0.6,1-1.3,2-3.1,2.7
			c-0.2-2.4-0.4-4.9-0.4-7.3c0-8.5-0.1-17,0.3-25.5c0.2-5.3-1.1-9.5-5.4-12.9c-3.2-2.6-5.7-5.9-8.8-8.7c-2.9-2.6-5.2-1.8-5.9,2
			c-0.3,1.8-0.2,3.6-0.2,5.4c0,33.8,0,67.6-0.1,101.4c0,2.9-0.6,5.7-0.9,8.6c-0.6,0.1-1.1,0.1-1.7,0.2c-0.8-1.1-2.1-2.2-2.2-3.4
			c-0.4-2.5-0.2-5.1-0.2-7.7c0-51.4,0-102.7,0-154.1c0-2.3,0.2-4.7-0.2-6.9c-0.2-1.3-1.2-3.2-2.2-3.5c-1.1-0.4-3.1,0.3-4.1,1.2
			c-3.6,3.6-7.3,7.2-10.3,11.3c-3.7,5.1-2.8,11.3-2.8,17.1c0,7.2,0,14.4,0,20.9c-2.8-2.4-6.5-4.7-9.1-7.9
			c-7.7-9.5-32.9-11.2-42.2-5.9c-3.9,2.2-5.1,4.9-3.6,10.6c2,7.6,5.9,14.4,11.4,19.9c9,9,19.5,14.1,32.7,12c3.2-0.5,6.6-0.1,9.6-0.1
			c1.7,6.1,2.3,83.4,0.7,94.2c-4.1-0.5-8.5-0.5-12.5-1.6c-25.9-7.2-49.5-18.7-70.3-36.1c-17-14.3-31.1-30.9-41.8-50.2
			c-12.3-22.1-18.8-46-21.8-71.1c-2.6-22,0.5-43.3,5.7-64.3c3.7-14.9,9.9-29.1,17.9-42.5c7.3-12.3,15.3-23.9,25.4-33.9
			c7.3-7.2,15.3-13.7,23.3-20.2c14.7-12.1,31.7-20.6,49.7-25.9c23.5-6.9,47.8-10.5,72.6-6.5c9.2,1.5,18.5,2.1,27.5,4.3
			c7.2,1.7,14,5,20.9,7.9c21.5,9.4,39.9,23.3,56.2,40.1c16.5,17.1,28.6,36.9,37.5,58.9c8.4,20.6,12.2,42.2,12.6,64.1
			c0.4,23.6-3.9,46.5-12.9,68.6c-6.5,16-15.4,30.3-25.6,43.9c-9.6,12.8-21.1,23.9-34.2,33.4c-19.2,13.9-40.5,23.2-63.4,29.4
			C226.3,379.1,220,380.2,212.2,379.8z M245.2,284.9c26.9,0.3,52.3-22.7,52.9-53.7c0.6-29.4-23.8-55.3-53.9-55.2
			c-30.2,0.2-54,27.7-52.9,56.2C192.5,261.1,216.2,285.1,245.2,284.9z M187.3,171.1c0.7-29.3-22.9-55.1-50.9-55.6
			c-30.2-0.6-55,22.7-55.3,52.7c-0.3,30.1,21.4,54.6,50.8,55.6C161.5,224.8,186.6,201,187.3,171.1z M230.3,171.4
			c27.1,0.4,52.1-21.8,52.7-52.1c0.6-30.9-23.3-54.1-50.7-54.8c-27-0.7-54.1,21.8-54.6,50.9C177.2,144.8,198.4,171.1,230.3,171.4z"
			/>
		<path fill="#253545" d="M629.1,144.6c-1.5,4.3-3.1,8.5-4.4,12.8c-2.9,8.9-6.2,17.7-12.6,24.6c-8.2,8.9-16.4,17.9-25.8,25.4
			c-11.6,9.3-23.9,18-36.8,25.4c-36.2,21-75.1,31-117.1,26.2c-6.2-0.7-12.3-3.5-18.2-6.1c-9-4-11-3.9-17.1,3.8
			c-2.8,3.6-5,7.8-7.4,11.7c-13.1,21-25.3,42.5-39.4,62.8c-14.9,21.3-32.8,40.2-52.5,57.4c-12.5,11-26.1,20.2-40.8,27.7
			c-7.1,3.6-14.9,5.8-22.3,8.7c-11.9,4.6-24.3,6.8-36.9,6.9c-7.9,0-15.9-1.1-23.6-2.8c-3.4-0.8-6.7-3.8-9.2-6.5
			c-3.3-3.5-2.4-6.3,2.1-8.3c1.2-0.5,2.4-0.9,3.7-1c6.4-0.6,12.8-1.5,19.2-1.6c25-0.3,48.2-7.2,70.5-17.8
			c24-11.5,44.6-27.4,63.4-46.2c18.5-18.5,34.8-38.6,48.9-60.6c10.3-16,19.9-32.5,29.8-48.7c1.2-2,2.6-3.8,3.8-5.8
			c3.2-4.8,7.7-5.6,12.9-4c21.7,6.7,43.8,6.6,65.9,3.8c22.3-2.8,44.1-7.9,64.7-17.3c22.9-10.5,44.1-23.6,61.7-41.9
			c4.4-4.6,6.5-11.6,9.6-17.5c2-3.9,3.9-7.8,5.8-11.7C627.8,144.2,628.5,144.4,629.1,144.6z"/>
		<path fill="#253545" d="M379.9,153.5c1.5-2.2,2.7-4.7,4.5-6.7c7.8-8.8,15.8-17.6,26.7-22.9c9.2-4.5,13.9-13.1,16.7-22
			c3.9-12.3,15.2-11.3,24.1-3.9c3.8,3.2,4.3,9.2,1.7,15.1c-4.9,11.2-14,17.4-25.1,21.2c-6.8,2.3-13.7,4.3-20.6,6.5
			c-8.1,2.7-15.9,5.8-22.6,11.4c-1.2,1-3,1.5-4.5,2.2C380.6,154.1,380.3,153.8,379.9,153.5z"/>
		<path fill="#253545" d="M469.8,107.2c-0.7,5.8-1.2,11.7-2.3,17.4c-3.4,17.2-11.6,31.7-23.8,44.2c-2.4,2.5-4.1,5.9-5.7,9
			c-6.6,12.9-13.6,25.5-25.9,34.1c-4.6,3.1-9.2,5.7-14.9,1.8c1.2-5.6,5.7-7.8,9.8-10.3c5.1-3.1,10.2-6,15.3-9.1
			c2-1.2,3.9-2.6,5.5-4.2c4.5-4.7,3.7-8.1-2.3-10.2c-0.7-0.3-1.5-0.4-2.2-0.7c-8.2-2.6-9.9-5.9-6.2-13.7c2.6-5.6,5.5-11.2,9.1-16
			c5.2-6.9,10-6.2,14.2,1.2c0.5,0.9,0.8,1.9,1.3,2.8c2.5,3.9,5.5,4.3,8.9,1.1c4.4-4.3,6.9-9.7,7.3-15.8c0.8-10.2,4.2-19.6,8-28.9
			c0.5-1.1,1.3-2.1,1.9-3.2C468.4,106.9,469.1,107.1,469.8,107.2z"/>
		<path fill="#253545" d="M504.1,188.2c0.5-5.4,3.8-9.4,7.5-12.9c1.3-1.3,4.7-2,6.2-1.2c5.6,2.9,9.5,1,12.6-3.5
			c2-2.9,3.8-5.8,7.9-3.1c3.4,2.3,3.9,5.8,1.3,10.2c-3.5,6.2-6.6,7.5-13.7,5.5c-4.3-1.2-6.6,0.9-9.1,3.9
			C511.7,193.3,511,193.2,504.1,188.2z"/>
		<path fill="#253545" d="M460.6,178.9c11.4,4.6,12.3,7.5,5.9,16.9c-0.1,0.2-0.3,0.4-0.4,0.6c-5.9,8.3-7.4,8.6-17.5,2.9
			C450.7,191.4,455.4,185,460.6,178.9z"/>
		<path fill="#253545" d="M598.2,129.7c2.1,1.2,4.2,2.2,6,3.6c3.2,2.4,3.8,5.6,1.8,8.9c-2.2,3.5-4.9,6.6-7.5,9.8
			c-2.1,2.6-4.9,2.3-7.8,1.3c-4.5-1.6-5.5-3.3-3.4-7.4C590.1,140.1,592.7,134.2,598.2,129.7z"/>
		<path fill="#253545" d="M510.6,159c2.9-4.4,5.3-8.4,8-12.1c1.5-2.1,3.4-4.2,6.5-2.4c2.8,1.7,3.6,4.2,2.8,7.3
			C525.4,160.7,518.6,163.8,510.6,159z"/>
		<path fill="#253545" d="M421.3,306.9c-0.4,14.9-4.6,28.5-10.4,41.8c-2.8,6.3-1.6,8.2,5.3,7.4c12-1.5,19.9-9.7,28.1-17.6
			c6.6-6.4,7.5-13.1,2.7-20.8c-0.1-0.2-0.2-0.4-0.4-0.6c-2.1-2.9-6.5-6.3-6-8.6c1.5-6.3,4.4-12.4,7.9-18c2.6-4.3,5.9-1.3,7.9,1.4
			c5.6,7.9,5.5,17,3.8,25.8c-2.6,13.2-9,24.6-18.8,34c-8.2,7.9-17.8,10.6-28.6,7.1c-5.2-1.7-8-0.3-11.3,3.9
			c-4.4,5.8-10.1,10.8-18.1,10.9c-2.7,0.1-5.7-0.6-8-1.8c-1.5-0.8-2.6-3.3-2.7-5.1c0-0.9,2.6-2.2,4.2-2.8c5.5-1.8,11.3-3.1,16.8-5.1
			c5.4-1.9,6.6-6.6,4.4-10.9c-8.3-15.9-3.2-31.1,1.7-46.3c1.5-4.6,4-9.1,7-12.9c3.8-4.9,8.6-4.6,11,1.1
			C419.8,295.2,420.1,301.3,421.3,306.9z"/>
	</g>
</g>
<g id="Layer_2">
</g>
</svg>
